<mxfile host="app.diagrams.net" agent="Mozilla/5.0 (Windows NT 10.0; Win64; x64) AppleWebKit/537.36 (KHTML, like Gecko) Chrome/126.0.0.0 Safari/537.36 OPR/112.0.0.0" version="24.7.7">
  <diagram name="Página-1" id="oocmhbJNpaytJsXBNUTh">
    <mxGraphModel dx="826" dy="469" grid="1" gridSize="10" guides="1" tooltips="1" connect="1" arrows="1" fold="1" page="1" pageScale="1" pageWidth="827" pageHeight="1169" math="0" shadow="0">
      <root>
        <mxCell id="0" />
        <mxCell id="1" parent="0" />
        <mxCell id="WhorsCFaroRiFAS23hu8-1" value="Administrador" style="rounded=0;whiteSpace=wrap;html=1;" parent="1" vertex="1">
          <mxGeometry x="40" y="93" width="120" height="60" as="geometry" />
        </mxCell>
        <mxCell id="WhorsCFaroRiFAS23hu8-2" value="Cadastro" style="rhombus;whiteSpace=wrap;html=1;" parent="1" vertex="1">
          <mxGeometry x="240" y="83" width="80" height="80" as="geometry" />
        </mxCell>
        <mxCell id="WhorsCFaroRiFAS23hu8-3" value="" style="endArrow=none;html=1;rounded=0;exitX=1;exitY=0.5;exitDx=0;exitDy=0;" parent="1" source="WhorsCFaroRiFAS23hu8-1" edge="1">
          <mxGeometry width="50" height="50" relative="1" as="geometry">
            <mxPoint x="190" y="122.5" as="sourcePoint" />
            <mxPoint x="240" y="123" as="targetPoint" />
          </mxGeometry>
        </mxCell>
        <mxCell id="WhorsCFaroRiFAS23hu8-4" value="Insumos" style="rounded=0;whiteSpace=wrap;html=1;" parent="1" vertex="1">
          <mxGeometry x="400" y="93" width="120" height="60" as="geometry" />
        </mxCell>
        <mxCell id="WhorsCFaroRiFAS23hu8-5" value="" style="endArrow=none;html=1;rounded=0;entryX=0;entryY=0.5;entryDx=0;entryDy=0;" parent="1" target="WhorsCFaroRiFAS23hu8-4" edge="1">
          <mxGeometry width="50" height="50" relative="1" as="geometry">
            <mxPoint x="320" y="123" as="sourcePoint" />
            <mxPoint x="370" y="73" as="targetPoint" />
          </mxGeometry>
        </mxCell>
        <mxCell id="WhorsCFaroRiFAS23hu8-6" value="Leva até" style="rhombus;whiteSpace=wrap;html=1;" parent="1" vertex="1">
          <mxGeometry x="600" y="83" width="80" height="80" as="geometry" />
        </mxCell>
        <mxCell id="WhorsCFaroRiFAS23hu8-7" value="" style="endArrow=none;html=1;rounded=0;entryX=0;entryY=0.5;entryDx=0;entryDy=0;" parent="1" target="WhorsCFaroRiFAS23hu8-6" edge="1">
          <mxGeometry width="50" height="50" relative="1" as="geometry">
            <mxPoint x="520" y="123" as="sourcePoint" />
            <mxPoint x="570" y="73" as="targetPoint" />
          </mxGeometry>
        </mxCell>
        <mxCell id="WhorsCFaroRiFAS23hu8-8" value="Receita" style="rounded=0;whiteSpace=wrap;html=1;" parent="1" vertex="1">
          <mxGeometry x="760" y="93" width="120" height="60" as="geometry" />
        </mxCell>
        <mxCell id="WhorsCFaroRiFAS23hu8-9" value="" style="endArrow=none;html=1;rounded=0;entryX=0;entryY=0.5;entryDx=0;entryDy=0;" parent="1" target="WhorsCFaroRiFAS23hu8-8" edge="1">
          <mxGeometry width="50" height="50" relative="1" as="geometry">
            <mxPoint x="680" y="123" as="sourcePoint" />
            <mxPoint x="730" y="73" as="targetPoint" />
          </mxGeometry>
        </mxCell>
        <mxCell id="WhorsCFaroRiFAS23hu8-10" value="Acessa" style="rhombus;whiteSpace=wrap;html=1;" parent="1" vertex="1">
          <mxGeometry x="60" y="240" width="80" height="80" as="geometry" />
        </mxCell>
        <mxCell id="WhorsCFaroRiFAS23hu8-11" value="Finanças" style="whiteSpace=wrap;html=1;" parent="1" vertex="1">
          <mxGeometry x="40" y="410" width="120" height="60" as="geometry" />
        </mxCell>
        <mxCell id="WhorsCFaroRiFAS23hu8-12" value="" style="endArrow=none;html=1;rounded=0;exitX=0.5;exitY=0;exitDx=0;exitDy=0;" parent="1" source="WhorsCFaroRiFAS23hu8-11" edge="1">
          <mxGeometry width="50" height="50" relative="1" as="geometry">
            <mxPoint x="50" y="370" as="sourcePoint" />
            <mxPoint x="100" y="320" as="targetPoint" />
          </mxGeometry>
        </mxCell>
        <mxCell id="WhorsCFaroRiFAS23hu8-13" value="" style="endArrow=none;html=1;rounded=0;entryX=0.5;entryY=1;entryDx=0;entryDy=0;" parent="1" target="WhorsCFaroRiFAS23hu8-1" edge="1">
          <mxGeometry width="50" height="50" relative="1" as="geometry">
            <mxPoint x="100" y="240" as="sourcePoint" />
            <mxPoint x="150" y="190" as="targetPoint" />
          </mxGeometry>
        </mxCell>
        <mxCell id="WhorsCFaroRiFAS23hu8-14" value="Cadrastrar_Funcionário" style="rounded=0;whiteSpace=wrap;html=1;" parent="1" vertex="1">
          <mxGeometry x="240" y="250" width="120" height="60" as="geometry" />
        </mxCell>
        <mxCell id="WhorsCFaroRiFAS23hu8-15" value="" style="endArrow=none;html=1;rounded=0;entryX=0;entryY=0.5;entryDx=0;entryDy=0;" parent="1" target="WhorsCFaroRiFAS23hu8-14" edge="1">
          <mxGeometry width="50" height="50" relative="1" as="geometry">
            <mxPoint x="140" y="280" as="sourcePoint" />
            <mxPoint x="190" y="230" as="targetPoint" />
          </mxGeometry>
        </mxCell>
        <mxCell id="WhorsCFaroRiFAS23hu8-16" value="" style="endArrow=none;html=1;rounded=0;" parent="1" edge="1">
          <mxGeometry width="50" height="50" relative="1" as="geometry">
            <mxPoint x="880" y="120" as="sourcePoint" />
            <mxPoint x="1180" y="120" as="targetPoint" />
          </mxGeometry>
        </mxCell>
        <mxCell id="WhorsCFaroRiFAS23hu8-17" value="" style="endArrow=none;html=1;rounded=0;" parent="1" edge="1">
          <mxGeometry width="50" height="50" relative="1" as="geometry">
            <mxPoint x="1180.5" y="200" as="sourcePoint" />
            <mxPoint x="1179.5" y="120" as="targetPoint" />
          </mxGeometry>
        </mxCell>
        <mxCell id="WhorsCFaroRiFAS23hu8-18" value="Relaciona com" style="rhombus;whiteSpace=wrap;html=1;" parent="1" vertex="1">
          <mxGeometry x="1140" y="200" width="80" height="80" as="geometry" />
        </mxCell>
        <mxCell id="WhorsCFaroRiFAS23hu8-19" value="" style="endArrow=none;html=1;rounded=0;" parent="1" edge="1">
          <mxGeometry width="50" height="50" relative="1" as="geometry">
            <mxPoint x="827" y="240" as="sourcePoint" />
            <mxPoint x="827" y="153" as="targetPoint" />
          </mxGeometry>
        </mxCell>
        <mxCell id="WhorsCFaroRiFAS23hu8-20" value="Acessa" style="rhombus;whiteSpace=wrap;html=1;" parent="1" vertex="1">
          <mxGeometry x="787" y="240" width="80" height="80" as="geometry" />
        </mxCell>
        <mxCell id="WhorsCFaroRiFAS23hu8-21" value="" style="endArrow=none;html=1;rounded=0;" parent="1" edge="1">
          <mxGeometry width="50" height="50" relative="1" as="geometry">
            <mxPoint x="827" y="400" as="sourcePoint" />
            <mxPoint x="827" y="320" as="targetPoint" />
          </mxGeometry>
        </mxCell>
        <mxCell id="WhorsCFaroRiFAS23hu8-22" value="Cozinheiro" style="rounded=0;whiteSpace=wrap;html=1;" parent="1" vertex="1">
          <mxGeometry x="767" y="400" width="120" height="60" as="geometry" />
        </mxCell>
        <mxCell id="WhorsCFaroRiFAS23hu8-23" value="" style="endArrow=none;html=1;rounded=0;" parent="1" edge="1">
          <mxGeometry width="50" height="50" relative="1" as="geometry">
            <mxPoint x="887" y="430" as="sourcePoint" />
            <mxPoint x="960" y="430" as="targetPoint" />
          </mxGeometry>
        </mxCell>
        <mxCell id="WhorsCFaroRiFAS23hu8-24" value="Acessa" style="rhombus;whiteSpace=wrap;html=1;" parent="1" vertex="1">
          <mxGeometry x="960" y="390" width="80" height="80" as="geometry" />
        </mxCell>
        <mxCell id="WhorsCFaroRiFAS23hu8-25" value="Pedido" style="whiteSpace=wrap;html=1;" parent="1" vertex="1">
          <mxGeometry x="1120" y="400" width="120" height="60" as="geometry" />
        </mxCell>
        <mxCell id="WhorsCFaroRiFAS23hu8-26" value="" style="endArrow=none;html=1;rounded=0;exitX=0.5;exitY=0;exitDx=0;exitDy=0;" parent="1" source="WhorsCFaroRiFAS23hu8-25" edge="1">
          <mxGeometry width="50" height="50" relative="1" as="geometry">
            <mxPoint x="1130" y="330" as="sourcePoint" />
            <mxPoint x="1180" y="280" as="targetPoint" />
          </mxGeometry>
        </mxCell>
        <mxCell id="WhorsCFaroRiFAS23hu8-27" value="&lt;span style=&quot;color: rgba(0, 0, 0, 0); font-family: monospace; font-size: 0px; font-style: normal; font-variant-ligatures: normal; font-variant-caps: normal; font-weight: 400; letter-spacing: normal; orphans: 2; text-align: start; text-indent: 0px; text-transform: none; widows: 2; word-spacing: 0px; -webkit-text-stroke-width: 0px; white-space: nowrap; background-color: rgb(251, 251, 251); text-decoration-thickness: initial; text-decoration-style: initial; text-decoration-color: initial; display: inline !important; float: none;&quot;&gt;%3CmxGraphModel%3E%3Croot%3E%3CmxCell%20id%3D%220%22%2F%3E%3CmxCell%20id%3D%221%22%20parent%3D%220%22%2F%3E%3CmxCell%20id%3D%222%22%20value%3D%22%22%20style%3D%22endArrow%3Dnone%3Bhtml %3D1%3Arredondado%3D0%3B%22%20borda%3D%221%22%20pai%3D%221%22%3E%3CmxGeometria%20largura%3D%2250%22%20altura%3D%2250%22%20relativa%3D%221%22%20as%3D%22geometria%22%3E%3CmxPoint%20x%3D%221180..5%22%20y%3D% 22200%22%20as%3D%22sourcePoint%22%2F%3E%3CmxPoint%20x%3D%221179.5%22%20y%3D%22120%22%20as%3D%22targetPoint%22%2F%3E%3C%2FmxGeometry%3E%3C%2FmxCell%3E%3C%2Froot%3E%3C%2FmxGraphModel%3E&lt;/span&gt;" style="text;whiteSpace=wrap;html=1;" parent="1" vertex="1">
          <mxGeometry x="1300" y="170" width="30" height="40" as="geometry" />
        </mxCell>
        <mxCell id="WhorsCFaroRiFAS23hu8-28" value="&lt;span style=&quot;color: rgba(0, 0, 0, 0); font-family: monospace; font-size: 0px; font-style: normal; font-variant-ligatures: normal; font-variant-caps: normal; font-weight: 400; letter-spacing: normal; orphans: 2; text-align: start; text-indent: 0px; text-transform: none; widows: 2; word-spacing: 0px; -webkit-text-stroke-width: 0px; white-space: nowrap; background-color: rgb(251, 251, 251); text-decoration-thickness: initial; text-decoration-style: initial; text-decoration-color: initial; display: inline !important; float: none;&quot;&gt;%3CmxGraphModel%3E%3Croot%3E%3CmxCell%20id%3D%220%22%2F%3E%3CmxCell%20id%3D%221%22%20parent%3D%220%22%2F%3E%3CmxCell%20id%3D%222%22%20value%3D%22%22%20style%3D%22endArrow%3Dnone%3Bhtml %3D1%3Arredondado%3D0%3B%22%20borda%3D%221%22%20pai%3D%221%22%3E%3CmxGeometria%20largura%3D%2250%22%20altura%3D%2250%22%20relativa%3D%221%22%20as%3D%22geometria%22%3E%3CmxPoint%20x%3D%221180..5%22%20y%3D% 22200%22%20as%3D%22sourcePoint%22%2F%3E%3CmxPoint%20x%3D%221179.5%22%20y%3D%22120%22%20as%3D%22targetPoint%22%2F%3E%3C%2FmxGeometry%3E%3C%2FmxCell%3E%3C%2Froot%3E%3C%2FmxGraphModel%3E&lt;/span&gt;" style="text;whiteSpace=wrap;html=1;" parent="1" vertex="1">
          <mxGeometry x="1340" y="250" width="30" height="40" as="geometry" />
        </mxCell>
        <mxCell id="WhorsCFaroRiFAS23hu8-29" value="" style="endArrow=none;html=1;rounded=0;entryX=0;entryY=0.5;entryDx=0;entryDy=0;" parent="1" target="WhorsCFaroRiFAS23hu8-25" edge="1">
          <mxGeometry width="50" height="50" relative="1" as="geometry">
            <mxPoint x="1040" y="430" as="sourcePoint" />
            <mxPoint x="1090" y="380" as="targetPoint" />
          </mxGeometry>
        </mxCell>
        <mxCell id="WhorsCFaroRiFAS23hu8-30" value="" style="triangle;whiteSpace=wrap;html=1;rotation=-90;" parent="1" vertex="1">
          <mxGeometry x="797" y="550" width="60" height="80" as="geometry" />
        </mxCell>
        <mxCell id="WhorsCFaroRiFAS23hu8-31" value="Tipos&lt;div&gt;de&amp;nbsp;&lt;/div&gt;&lt;div&gt;funcionário&lt;/div&gt;" style="text;html=1;align=center;verticalAlign=middle;whiteSpace=wrap;rounded=0;" parent="1" vertex="1">
          <mxGeometry x="797" y="585" width="60" height="30" as="geometry" />
        </mxCell>
        <mxCell id="WhorsCFaroRiFAS23hu8-32" value="Garçom" style="whiteSpace=wrap;html=1;" parent="1" vertex="1">
          <mxGeometry x="960" y="575" width="120" height="60" as="geometry" />
        </mxCell>
        <mxCell id="WhorsCFaroRiFAS23hu8-33" value="Caixa" style="whiteSpace=wrap;html=1;" parent="1" vertex="1">
          <mxGeometry x="767" y="729" width="120" height="60" as="geometry" />
        </mxCell>
        <mxCell id="WhorsCFaroRiFAS23hu8-34" value="Funcionário" style="whiteSpace=wrap;html=1;" parent="1" vertex="1">
          <mxGeometry x="580" y="575" width="120" height="55" as="geometry" />
        </mxCell>
        <mxCell id="WhorsCFaroRiFAS23hu8-35" value="" style="endArrow=none;html=1;rounded=0;entryX=0;entryY=0.75;entryDx=0;entryDy=0;" parent="1" target="WhorsCFaroRiFAS23hu8-32" edge="1">
          <mxGeometry width="50" height="50" relative="1" as="geometry">
            <mxPoint x="867" y="620" as="sourcePoint" />
            <mxPoint x="917" y="570" as="targetPoint" />
          </mxGeometry>
        </mxCell>
        <mxCell id="WhorsCFaroRiFAS23hu8-36" value="" style="endArrow=none;html=1;rounded=0;exitX=0.5;exitY=0;exitDx=0;exitDy=0;" parent="1" source="WhorsCFaroRiFAS23hu8-33" edge="1">
          <mxGeometry width="50" height="50" relative="1" as="geometry">
            <mxPoint x="777" y="670" as="sourcePoint" />
            <mxPoint x="827" y="620" as="targetPoint" />
          </mxGeometry>
        </mxCell>
        <mxCell id="WhorsCFaroRiFAS23hu8-37" value="" style="endArrow=none;html=1;rounded=0;exitX=1;exitY=0.5;exitDx=0;exitDy=0;" parent="1" source="WhorsCFaroRiFAS23hu8-30" edge="1">
          <mxGeometry width="50" height="50" relative="1" as="geometry">
            <mxPoint x="777" y="510" as="sourcePoint" />
            <mxPoint x="827" y="460" as="targetPoint" />
          </mxGeometry>
        </mxCell>
        <mxCell id="WhorsCFaroRiFAS23hu8-38" value="" style="endArrow=none;html=1;rounded=0;exitX=1;exitY=0.75;exitDx=0;exitDy=0;" parent="1" source="WhorsCFaroRiFAS23hu8-34" edge="1">
          <mxGeometry width="50" height="50" relative="1" as="geometry">
            <mxPoint x="737" y="670" as="sourcePoint" />
            <mxPoint x="787" y="620" as="targetPoint" />
          </mxGeometry>
        </mxCell>
        <mxCell id="WhorsCFaroRiFAS23hu8-39" value="" style="endArrow=none;html=1;rounded=0;" parent="1" edge="1">
          <mxGeometry width="50" height="50" relative="1" as="geometry">
            <mxPoint x="1180" y="550" as="sourcePoint" />
            <mxPoint x="1180" y="460" as="targetPoint" />
          </mxGeometry>
        </mxCell>
        <mxCell id="WhorsCFaroRiFAS23hu8-40" value="Efetuado&lt;div&gt;Pelo&lt;/div&gt;" style="rhombus;whiteSpace=wrap;html=1;" parent="1" vertex="1">
          <mxGeometry x="1140" y="555" width="80" height="80" as="geometry" />
        </mxCell>
        <mxCell id="WhorsCFaroRiFAS23hu8-41" value="Cliente" style="rounded=0;whiteSpace=wrap;html=1;" parent="1" vertex="1">
          <mxGeometry x="1121" y="720" width="120" height="60" as="geometry" />
        </mxCell>
        <mxCell id="WhorsCFaroRiFAS23hu8-42" value="" style="endArrow=none;html=1;rounded=0;exitX=0.5;exitY=0;exitDx=0;exitDy=0;" parent="1" source="WhorsCFaroRiFAS23hu8-41" edge="1">
          <mxGeometry width="50" height="50" relative="1" as="geometry">
            <mxPoint x="1130" y="685" as="sourcePoint" />
            <mxPoint x="1180" y="635" as="targetPoint" />
          </mxGeometry>
        </mxCell>
        <mxCell id="WhorsCFaroRiFAS23hu8-43" value="" style="shape=waypoint;sketch=0;fillStyle=solid;size=6;pointerEvents=1;points=[];fillColor=none;resizable=0;rotatable=0;perimeter=centerPerimeter;snapToPoint=1;" parent="1" vertex="1">
          <mxGeometry x="40" y="50" width="20" height="20" as="geometry" />
        </mxCell>
        <mxCell id="WhorsCFaroRiFAS23hu8-44" value="" style="endArrow=none;html=1;rounded=0;exitX=0.09;exitY=0.017;exitDx=0;exitDy=0;exitPerimeter=0;" parent="1" source="WhorsCFaroRiFAS23hu8-1" edge="1">
          <mxGeometry width="50" height="50" relative="1" as="geometry">
            <mxPoint y="110" as="sourcePoint" />
            <mxPoint x="50" y="60" as="targetPoint" />
          </mxGeometry>
        </mxCell>
        <mxCell id="WhorsCFaroRiFAS23hu8-45" value="ID" style="text;html=1;align=center;verticalAlign=middle;resizable=0;points=[];autosize=1;strokeColor=none;fillColor=none;" parent="1" vertex="1">
          <mxGeometry x="31" y="30" width="40" height="30" as="geometry" />
        </mxCell>
        <mxCell id="WhorsCFaroRiFAS23hu8-46" value="" style="verticalLabelPosition=bottom;verticalAlign=top;html=1;shape=mxgraph.flowchart.on-page_reference;" parent="1" vertex="1">
          <mxGeometry x="90" y="55" width="10" height="10" as="geometry" />
        </mxCell>
        <mxCell id="WhorsCFaroRiFAS23hu8-47" value="" style="endArrow=none;html=1;rounded=0;" parent="1" edge="1">
          <mxGeometry width="50" height="50" relative="1" as="geometry">
            <mxPoint x="94.5" y="88" as="sourcePoint" />
            <mxPoint x="94.5" y="65" as="targetPoint" />
          </mxGeometry>
        </mxCell>
        <mxCell id="WhorsCFaroRiFAS23hu8-48" value="Senha&amp;nbsp;" style="text;html=1;align=center;verticalAlign=middle;resizable=0;points=[];autosize=1;strokeColor=none;fillColor=none;" parent="1" vertex="1">
          <mxGeometry x="69" y="31" width="60" height="30" as="geometry" />
        </mxCell>
        <mxCell id="WhorsCFaroRiFAS23hu8-49" value="(1,1)" style="text;html=1;align=center;verticalAlign=middle;resizable=0;points=[];autosize=1;strokeColor=none;fillColor=none;" parent="1" vertex="1">
          <mxGeometry x="152" y="96" width="50" height="30" as="geometry" />
        </mxCell>
        <mxCell id="WhorsCFaroRiFAS23hu8-50" value="(*,*)" style="text;html=1;align=center;verticalAlign=middle;resizable=0;points=[];autosize=1;strokeColor=none;fillColor=none;" parent="1" vertex="1">
          <mxGeometry x="94" y="384" width="40" height="30" as="geometry" />
        </mxCell>
        <mxCell id="WhorsCFaroRiFAS23hu8-51" value="" style="ellipse;whiteSpace=wrap;html=1;" parent="1" vertex="1">
          <mxGeometry x="109" y="500" width="10" height="10" as="geometry" />
        </mxCell>
        <mxCell id="WhorsCFaroRiFAS23hu8-52" value="" style="ellipse;whiteSpace=wrap;html=1;" parent="1" vertex="1">
          <mxGeometry x="144" y="500" width="10" height="10" as="geometry" />
        </mxCell>
        <mxCell id="WhorsCFaroRiFAS23hu8-53" value="" style="endArrow=none;html=1;rounded=0;" parent="1" edge="1">
          <mxGeometry width="50" height="50" relative="1" as="geometry">
            <mxPoint x="114" y="500" as="sourcePoint" />
            <mxPoint x="114" y="470" as="targetPoint" />
          </mxGeometry>
        </mxCell>
        <mxCell id="WhorsCFaroRiFAS23hu8-54" value="" style="endArrow=none;html=1;rounded=0;" parent="1" edge="1">
          <mxGeometry width="50" height="50" relative="1" as="geometry">
            <mxPoint x="148" y="500" as="sourcePoint" />
            <mxPoint x="148" y="470" as="targetPoint" />
          </mxGeometry>
        </mxCell>
        <mxCell id="WhorsCFaroRiFAS23hu8-55" value="" style="shape=waypoint;sketch=0;fillStyle=solid;size=6;pointerEvents=1;points=[];fillColor=none;resizable=0;rotatable=0;perimeter=centerPerimeter;snapToPoint=1;" parent="1" vertex="1">
          <mxGeometry x="60" y="495" width="20" height="20" as="geometry" />
        </mxCell>
        <mxCell id="WhorsCFaroRiFAS23hu8-56" value="" style="endArrow=none;html=1;rounded=0;" parent="1" source="WhorsCFaroRiFAS23hu8-55" edge="1">
          <mxGeometry width="50" height="50" relative="1" as="geometry">
            <mxPoint x="21" y="520" as="sourcePoint" />
            <mxPoint x="71" y="470" as="targetPoint" />
          </mxGeometry>
        </mxCell>
        <mxCell id="WhorsCFaroRiFAS23hu8-57" value="ID" style="text;html=1;align=center;verticalAlign=middle;resizable=0;points=[];autosize=1;strokeColor=none;fillColor=none;" parent="1" vertex="1">
          <mxGeometry x="50" y="505" width="40" height="30" as="geometry" />
        </mxCell>
        <mxCell id="WhorsCFaroRiFAS23hu8-58" value="Lucro" style="text;html=1;align=center;verticalAlign=middle;resizable=0;points=[];autosize=1;strokeColor=none;fillColor=none;" parent="1" vertex="1">
          <mxGeometry x="89" y="505" width="50" height="30" as="geometry" />
        </mxCell>
        <mxCell id="WhorsCFaroRiFAS23hu8-59" value="Gastos" style="text;html=1;align=center;verticalAlign=middle;whiteSpace=wrap;rounded=0;" parent="1" vertex="1">
          <mxGeometry x="125" y="505" width="60" height="30" as="geometry" />
        </mxCell>
        <mxCell id="WhorsCFaroRiFAS23hu8-60" value="(*,*)" style="text;html=1;align=center;verticalAlign=middle;resizable=0;points=[];autosize=1;strokeColor=none;fillColor=none;" parent="1" vertex="1">
          <mxGeometry x="207" y="253" width="40" height="30" as="geometry" />
        </mxCell>
        <mxCell id="WhorsCFaroRiFAS23hu8-61" value="" style="endArrow=none;html=1;rounded=0;" parent="1" edge="1">
          <mxGeometry width="50" height="50" relative="1" as="geometry">
            <mxPoint x="253.05" y="310" as="sourcePoint" />
            <mxPoint x="252.55" y="343" as="targetPoint" />
          </mxGeometry>
        </mxCell>
        <mxCell id="WhorsCFaroRiFAS23hu8-62" value="" style="shape=waypoint;sketch=0;fillStyle=solid;size=6;pointerEvents=1;points=[];fillColor=none;resizable=0;rotatable=0;perimeter=centerPerimeter;snapToPoint=1;" parent="1" vertex="1">
          <mxGeometry x="243" y="339" width="20" height="20" as="geometry" />
        </mxCell>
        <mxCell id="WhorsCFaroRiFAS23hu8-63" value="" style="ellipse;whiteSpace=wrap;html=1;" parent="1" vertex="1">
          <mxGeometry x="400" y="252" width="10" height="10" as="geometry" />
        </mxCell>
        <mxCell id="WhorsCFaroRiFAS23hu8-64" value="" style="ellipse;whiteSpace=wrap;html=1;" parent="1" vertex="1">
          <mxGeometry x="400" y="300" width="10" height="10" as="geometry" />
        </mxCell>
        <mxCell id="WhorsCFaroRiFAS23hu8-65" value="" style="ellipse;whiteSpace=wrap;html=1;" parent="1" vertex="1">
          <mxGeometry x="283" y="344" width="10" height="10" as="geometry" />
        </mxCell>
        <mxCell id="WhorsCFaroRiFAS23hu8-66" value="" style="ellipse;whiteSpace=wrap;html=1;" parent="1" vertex="1">
          <mxGeometry x="337" y="348" width="7" height="10" as="geometry" />
        </mxCell>
        <mxCell id="WhorsCFaroRiFAS23hu8-67" value="" style="endArrow=none;html=1;rounded=0;exitX=1.034;exitY=0.902;exitDx=0;exitDy=0;exitPerimeter=0;" parent="1" source="WhorsCFaroRiFAS23hu8-14" edge="1">
          <mxGeometry width="50" height="50" relative="1" as="geometry">
            <mxPoint x="350" y="354" as="sourcePoint" />
            <mxPoint x="400" y="304" as="targetPoint" />
          </mxGeometry>
        </mxCell>
        <mxCell id="WhorsCFaroRiFAS23hu8-68" value="" style="endArrow=none;html=1;rounded=0;exitX=1.028;exitY=0.15;exitDx=0;exitDy=0;exitPerimeter=0;" parent="1" source="WhorsCFaroRiFAS23hu8-14" edge="1">
          <mxGeometry width="50" height="50" relative="1" as="geometry">
            <mxPoint x="350" y="305" as="sourcePoint" />
            <mxPoint x="400" y="255" as="targetPoint" />
          </mxGeometry>
        </mxCell>
        <mxCell id="WhorsCFaroRiFAS23hu8-69" value="" style="endArrow=none;html=1;rounded=0;entryX=0.75;entryY=1;entryDx=0;entryDy=0;" parent="1" edge="1">
          <mxGeometry width="50" height="50" relative="1" as="geometry">
            <mxPoint x="340" y="348" as="sourcePoint" />
            <mxPoint x="340" y="314" as="targetPoint" />
            <Array as="points">
              <mxPoint x="340" y="334" />
            </Array>
          </mxGeometry>
        </mxCell>
        <mxCell id="WhorsCFaroRiFAS23hu8-70" value="" style="endArrow=none;html=1;rounded=0;entryX=0.416;entryY=1.011;entryDx=0;entryDy=0;entryPerimeter=0;" parent="1" target="WhorsCFaroRiFAS23hu8-14" edge="1">
          <mxGeometry width="50" height="50" relative="1" as="geometry">
            <mxPoint x="287" y="344" as="sourcePoint" />
            <mxPoint x="337" y="294" as="targetPoint" />
          </mxGeometry>
        </mxCell>
        <mxCell id="WhorsCFaroRiFAS23hu8-71" value="ID" style="text;html=1;align=center;verticalAlign=middle;resizable=0;points=[];autosize=1;strokeColor=none;fillColor=none;" parent="1" vertex="1">
          <mxGeometry x="233" y="348" width="40" height="30" as="geometry" />
        </mxCell>
        <mxCell id="WhorsCFaroRiFAS23hu8-72" value="&lt;div&gt;&lt;span style=&quot;background-color: initial;&quot;&gt;Cadastro&lt;/span&gt;&lt;br&gt;&lt;/div&gt;&lt;div&gt;&lt;span style=&quot;background-color: initial;&quot;&gt;lig/desl&lt;/span&gt;&lt;/div&gt;&lt;div&gt;&lt;span style=&quot;background-color: initial;&quot;&gt;Funcionário&amp;nbsp;&lt;/span&gt;&lt;/div&gt;" style="text;html=1;align=center;verticalAlign=middle;resizable=0;points=[];autosize=1;strokeColor=none;fillColor=none;rotation=0;" parent="1" vertex="1">
          <mxGeometry x="247" y="348" width="90" height="60" as="geometry" />
        </mxCell>
        <mxCell id="WhorsCFaroRiFAS23hu8-73" value="Ponto" style="text;html=1;align=center;verticalAlign=middle;resizable=0;points=[];autosize=1;strokeColor=none;fillColor=none;" parent="1" vertex="1">
          <mxGeometry x="320" y="354" width="50" height="30" as="geometry" />
        </mxCell>
        <mxCell id="WhorsCFaroRiFAS23hu8-74" value="&lt;div&gt;Dados_Funcionario&lt;/div&gt;" style="text;html=1;align=center;verticalAlign=middle;resizable=0;points=[];autosize=1;strokeColor=none;fillColor=none;" parent="1" vertex="1">
          <mxGeometry x="406" y="290" width="130" height="30" as="geometry" />
        </mxCell>
        <mxCell id="WhorsCFaroRiFAS23hu8-75" value="Lista_Funcionario" style="text;html=1;align=center;verticalAlign=middle;resizable=0;points=[];autosize=1;strokeColor=none;fillColor=none;" parent="1" vertex="1">
          <mxGeometry x="400" y="240" width="120" height="30" as="geometry" />
        </mxCell>
        <mxCell id="WhorsCFaroRiFAS23hu8-76" value="" style="shape=waypoint;sketch=0;fillStyle=solid;size=6;pointerEvents=1;points=[];fillColor=none;resizable=0;rotatable=0;perimeter=centerPerimeter;snapToPoint=1;" parent="1" vertex="1">
          <mxGeometry x="399" y="50" width="20" height="20" as="geometry" />
        </mxCell>
        <mxCell id="WhorsCFaroRiFAS23hu8-77" value="" style="endArrow=none;html=1;rounded=0;exitX=0.09;exitY=-0.063;exitDx=0;exitDy=0;exitPerimeter=0;" parent="1" source="WhorsCFaroRiFAS23hu8-4" edge="1">
          <mxGeometry width="50" height="50" relative="1" as="geometry">
            <mxPoint x="360" y="110" as="sourcePoint" />
            <mxPoint x="410" y="60" as="targetPoint" />
          </mxGeometry>
        </mxCell>
        <mxCell id="WhorsCFaroRiFAS23hu8-78" value="Nome&lt;div&gt;Marca&lt;/div&gt;" style="text;html=1;align=center;verticalAlign=middle;resizable=0;points=[];autosize=1;strokeColor=none;fillColor=none;" parent="1" vertex="1">
          <mxGeometry x="419" y="24" width="60" height="40" as="geometry" />
        </mxCell>
        <mxCell id="WhorsCFaroRiFAS23hu8-79" value="ID" style="text;html=1;align=center;verticalAlign=middle;resizable=0;points=[];autosize=1;strokeColor=none;fillColor=none;" parent="1" vertex="1">
          <mxGeometry x="389" y="34" width="40" height="30" as="geometry" />
        </mxCell>
        <mxCell id="WhorsCFaroRiFAS23hu8-80" value="" style="ellipse;whiteSpace=wrap;html=1;" parent="1" vertex="1">
          <mxGeometry x="482" y="175" width="10" height="10" as="geometry" />
        </mxCell>
        <mxCell id="WhorsCFaroRiFAS23hu8-81" value="" style="ellipse;whiteSpace=wrap;html=1;" parent="1" vertex="1">
          <mxGeometry x="419" y="170" width="10" height="10" as="geometry" />
        </mxCell>
        <mxCell id="WhorsCFaroRiFAS23hu8-82" value="" style="ellipse;whiteSpace=wrap;html=1;" parent="1" vertex="1">
          <mxGeometry x="483" y="58" width="10" height="10" as="geometry" />
        </mxCell>
        <mxCell id="WhorsCFaroRiFAS23hu8-83" value="" style="ellipse;whiteSpace=wrap;html=1;" parent="1" vertex="1">
          <mxGeometry x="440" y="60" width="10" height="10" as="geometry" />
        </mxCell>
        <mxCell id="WhorsCFaroRiFAS23hu8-84" value="" style="endArrow=none;html=1;rounded=0;" parent="1" edge="1">
          <mxGeometry width="50" height="50" relative="1" as="geometry">
            <mxPoint x="445" y="88" as="sourcePoint" />
            <mxPoint x="445" y="73" as="targetPoint" />
          </mxGeometry>
        </mxCell>
        <mxCell id="WhorsCFaroRiFAS23hu8-85" value="(*,*)" style="text;html=1;align=center;verticalAlign=middle;resizable=0;points=[];autosize=1;strokeColor=none;fillColor=none;" parent="1" vertex="1">
          <mxGeometry x="366" y="94" width="40" height="30" as="geometry" />
        </mxCell>
        <mxCell id="WhorsCFaroRiFAS23hu8-86" value="" style="endArrow=none;html=1;rounded=0;" parent="1" edge="1">
          <mxGeometry width="50" height="50" relative="1" as="geometry">
            <mxPoint x="488" y="87" as="sourcePoint" />
            <mxPoint x="488" y="73" as="targetPoint" />
          </mxGeometry>
        </mxCell>
        <mxCell id="WhorsCFaroRiFAS23hu8-87" value="Quantidade" style="text;html=1;align=center;verticalAlign=middle;resizable=0;points=[];autosize=1;strokeColor=none;fillColor=none;" parent="1" vertex="1">
          <mxGeometry x="460" y="31" width="90" height="30" as="geometry" />
        </mxCell>
        <mxCell id="WhorsCFaroRiFAS23hu8-88" value="" style="endArrow=none;html=1;rounded=0;" parent="1" edge="1">
          <mxGeometry width="50" height="50" relative="1" as="geometry">
            <mxPoint x="424" y="169" as="sourcePoint" />
            <mxPoint x="424" y="151" as="targetPoint" />
          </mxGeometry>
        </mxCell>
        <mxCell id="WhorsCFaroRiFAS23hu8-89" value="Valor" style="text;html=1;align=center;verticalAlign=middle;resizable=0;points=[];autosize=1;strokeColor=none;fillColor=none;" parent="1" vertex="1">
          <mxGeometry x="401" y="175" width="50" height="30" as="geometry" />
        </mxCell>
        <mxCell id="WhorsCFaroRiFAS23hu8-90" value="" style="endArrow=none;html=1;rounded=0;" parent="1" edge="1">
          <mxGeometry width="50" height="50" relative="1" as="geometry">
            <mxPoint x="487" y="176" as="sourcePoint" />
            <mxPoint x="487" y="154" as="targetPoint" />
          </mxGeometry>
        </mxCell>
        <mxCell id="WhorsCFaroRiFAS23hu8-91" value="Aviso&lt;div&gt;Insumo_Minimo&lt;/div&gt;" style="text;html=1;align=center;verticalAlign=middle;resizable=0;points=[];autosize=1;strokeColor=none;fillColor=none;" parent="1" vertex="1">
          <mxGeometry x="433" y="180" width="110" height="40" as="geometry" />
        </mxCell>
        <mxCell id="WhorsCFaroRiFAS23hu8-92" value="(*,*)" style="text;html=1;align=center;verticalAlign=middle;resizable=0;points=[];autosize=1;strokeColor=none;fillColor=none;" parent="1" vertex="1">
          <mxGeometry x="754" y="66" width="40" height="30" as="geometry" />
        </mxCell>
        <mxCell id="WhorsCFaroRiFAS23hu8-93" value="ID" style="text;html=1;align=center;verticalAlign=middle;resizable=0;points=[];autosize=1;strokeColor=none;fillColor=none;" parent="1" vertex="1">
          <mxGeometry x="787" y="42" width="40" height="30" as="geometry" />
        </mxCell>
        <mxCell id="WhorsCFaroRiFAS23hu8-94" value="" style="shape=waypoint;sketch=0;fillStyle=solid;size=6;pointerEvents=1;points=[];fillColor=none;resizable=0;rotatable=0;perimeter=centerPerimeter;snapToPoint=1;" parent="1" vertex="1">
          <mxGeometry x="797" y="58" width="20" height="20" as="geometry" />
        </mxCell>
        <mxCell id="WhorsCFaroRiFAS23hu8-95" value="" style="endArrow=none;html=1;rounded=0;" parent="1" edge="1">
          <mxGeometry width="50" height="50" relative="1" as="geometry">
            <mxPoint x="808" y="93" as="sourcePoint" />
            <mxPoint x="808" y="73" as="targetPoint" />
          </mxGeometry>
        </mxCell>
        <mxCell id="WhorsCFaroRiFAS23hu8-96" value="" style="ellipse;whiteSpace=wrap;html=1;" parent="1" vertex="1">
          <mxGeometry x="840" y="60" width="10" height="10" as="geometry" />
        </mxCell>
        <mxCell id="WhorsCFaroRiFAS23hu8-97" value="" style="ellipse;whiteSpace=wrap;html=1;" parent="1" vertex="1">
          <mxGeometry x="849" y="175" width="10" height="10" as="geometry" />
        </mxCell>
        <mxCell id="WhorsCFaroRiFAS23hu8-98" value="" style="endArrow=none;html=1;rounded=0;" parent="1" edge="1">
          <mxGeometry width="50" height="50" relative="1" as="geometry">
            <mxPoint x="845" y="91" as="sourcePoint" />
            <mxPoint x="845" y="71" as="targetPoint" />
          </mxGeometry>
        </mxCell>
        <mxCell id="WhorsCFaroRiFAS23hu8-99" value="Rec_&lt;div&gt;&lt;span style=&quot;background-color: initial;&quot;&gt;Ingred_Pizza&lt;/span&gt;&lt;/div&gt;" style="text;html=1;align=center;verticalAlign=middle;resizable=0;points=[];autosize=1;strokeColor=none;fillColor=none;" parent="1" vertex="1">
          <mxGeometry x="810" y="20" width="90" height="40" as="geometry" />
        </mxCell>
        <mxCell id="WhorsCFaroRiFAS23hu8-100" value="" style="endArrow=none;html=1;rounded=0;" parent="1" edge="1">
          <mxGeometry width="50" height="50" relative="1" as="geometry">
            <mxPoint x="854" y="175" as="sourcePoint" />
            <mxPoint x="854" y="155" as="targetPoint" />
          </mxGeometry>
        </mxCell>
        <mxCell id="WhorsCFaroRiFAS23hu8-101" value="Suco" style="text;html=1;align=center;verticalAlign=middle;resizable=0;points=[];autosize=1;strokeColor=none;fillColor=none;" parent="1" vertex="1">
          <mxGeometry x="828" y="178" width="50" height="30" as="geometry" />
        </mxCell>
        <mxCell id="WhorsCFaroRiFAS23hu8-102" value="(*,*)" style="text;html=1;align=center;verticalAlign=middle;resizable=0;points=[];autosize=1;strokeColor=none;fillColor=none;" parent="1" vertex="1">
          <mxGeometry x="1109" y="367" width="40" height="30" as="geometry" />
        </mxCell>
        <mxCell id="WhorsCFaroRiFAS23hu8-103" value="" style="shape=waypoint;sketch=0;fillStyle=solid;size=6;pointerEvents=1;points=[];fillColor=none;resizable=0;rotatable=0;perimeter=centerPerimeter;snapToPoint=1;" parent="1" vertex="1">
          <mxGeometry x="1145" y="359" width="20" height="20" as="geometry" />
        </mxCell>
        <mxCell id="WhorsCFaroRiFAS23hu8-104" value="" style="endArrow=none;html=1;rounded=0;" parent="1" edge="1">
          <mxGeometry width="50" height="50" relative="1" as="geometry">
            <mxPoint x="1155" y="397" as="sourcePoint" />
            <mxPoint x="1155" y="375" as="targetPoint" />
          </mxGeometry>
        </mxCell>
        <mxCell id="WhorsCFaroRiFAS23hu8-105" value="ID" style="text;html=1;align=center;verticalAlign=middle;resizable=0;points=[];autosize=1;strokeColor=none;fillColor=none;" parent="1" vertex="1">
          <mxGeometry x="1135" y="342" width="40" height="30" as="geometry" />
        </mxCell>
        <mxCell id="WhorsCFaroRiFAS23hu8-106" value="" style="ellipse;whiteSpace=wrap;html=1;" parent="1" vertex="1">
          <mxGeometry x="1201" y="363" width="10" height="10" as="geometry" />
        </mxCell>
        <mxCell id="WhorsCFaroRiFAS23hu8-107" value="" style="ellipse;whiteSpace=wrap;html=1;" parent="1" vertex="1">
          <mxGeometry x="1271" y="406" width="10" height="10" as="geometry" />
        </mxCell>
        <mxCell id="WhorsCFaroRiFAS23hu8-108" value="" style="ellipse;whiteSpace=wrap;html=1;" parent="1" vertex="1">
          <mxGeometry x="1271" y="447" width="10" height="10" as="geometry" />
        </mxCell>
        <mxCell id="WhorsCFaroRiFAS23hu8-109" value="" style="endArrow=none;html=1;rounded=0;" parent="1" edge="1">
          <mxGeometry width="50" height="50" relative="1" as="geometry">
            <mxPoint x="1206" y="397" as="sourcePoint" />
            <mxPoint x="1206" y="373" as="targetPoint" />
          </mxGeometry>
        </mxCell>
        <mxCell id="WhorsCFaroRiFAS23hu8-110" value="Pedido" style="text;html=1;align=center;verticalAlign=middle;resizable=0;points=[];autosize=1;strokeColor=none;fillColor=none;" parent="1" vertex="1">
          <mxGeometry x="1181" y="337" width="60" height="30" as="geometry" />
        </mxCell>
        <mxCell id="WhorsCFaroRiFAS23hu8-111" value="" style="endArrow=none;html=1;rounded=0;" parent="1" edge="1">
          <mxGeometry width="50" height="50" relative="1" as="geometry">
            <mxPoint x="1243" y="412" as="sourcePoint" />
            <mxPoint x="1273" y="412" as="targetPoint" />
          </mxGeometry>
        </mxCell>
        <mxCell id="WhorsCFaroRiFAS23hu8-112" value="" style="endArrow=none;html=1;rounded=0;" parent="1" edge="1">
          <mxGeometry width="50" height="50" relative="1" as="geometry">
            <mxPoint x="1243" y="452" as="sourcePoint" />
            <mxPoint x="1273" y="452" as="targetPoint" />
          </mxGeometry>
        </mxCell>
        <mxCell id="WhorsCFaroRiFAS23hu8-113" value="Preço" style="text;html=1;align=center;verticalAlign=middle;resizable=0;points=[];autosize=1;strokeColor=none;fillColor=none;" parent="1" vertex="1">
          <mxGeometry x="1277" y="398" width="50" height="30" as="geometry" />
        </mxCell>
        <mxCell id="WhorsCFaroRiFAS23hu8-114" value="Cod_Pedido" style="text;html=1;align=center;verticalAlign=middle;resizable=0;points=[];autosize=1;strokeColor=none;fillColor=none;" parent="1" vertex="1">
          <mxGeometry x="1271" y="438" width="90" height="30" as="geometry" />
        </mxCell>
        <mxCell id="WhorsCFaroRiFAS23hu8-115" value="" style="shape=waypoint;sketch=0;fillStyle=solid;size=6;pointerEvents=1;points=[];fillColor=none;resizable=0;rotatable=0;perimeter=centerPerimeter;snapToPoint=1;" parent="1" vertex="1">
          <mxGeometry x="1117" y="795" width="20" height="20" as="geometry" />
        </mxCell>
        <mxCell id="WhorsCFaroRiFAS23hu8-116" value="" style="endArrow=none;html=1;rounded=0;" parent="1" edge="1">
          <mxGeometry width="50" height="50" relative="1" as="geometry">
            <mxPoint x="1127" y="802" as="sourcePoint" />
            <mxPoint x="1126" y="782" as="targetPoint" />
          </mxGeometry>
        </mxCell>
        <mxCell id="WhorsCFaroRiFAS23hu8-117" value="ID" style="text;html=1;align=center;verticalAlign=middle;resizable=0;points=[];autosize=1;strokeColor=none;fillColor=none;" parent="1" vertex="1">
          <mxGeometry x="1109" y="802" width="40" height="30" as="geometry" />
        </mxCell>
        <mxCell id="WhorsCFaroRiFAS23hu8-118" value="" style="ellipse;whiteSpace=wrap;html=1;" parent="1" vertex="1">
          <mxGeometry x="1262" y="755" width="10" height="10" as="geometry" />
        </mxCell>
        <mxCell id="WhorsCFaroRiFAS23hu8-119" value="" style="ellipse;whiteSpace=wrap;html=1;" parent="1" vertex="1">
          <mxGeometry x="1203" y="805" width="9" height="10" as="geometry" />
        </mxCell>
        <mxCell id="WhorsCFaroRiFAS23hu8-120" value="" style="ellipse;whiteSpace=wrap;html=1;" parent="1" vertex="1">
          <mxGeometry x="1157" y="802" width="10" height="10" as="geometry" />
        </mxCell>
        <mxCell id="WhorsCFaroRiFAS23hu8-121" value="" style="endArrow=none;html=1;rounded=0;" parent="1" edge="1">
          <mxGeometry width="50" height="50" relative="1" as="geometry">
            <mxPoint x="1163" y="802" as="sourcePoint" />
            <mxPoint x="1162" y="782" as="targetPoint" />
          </mxGeometry>
        </mxCell>
        <mxCell id="WhorsCFaroRiFAS23hu8-122" value="Fazer&lt;div&gt;Pedido&lt;/div&gt;" style="text;html=1;align=center;verticalAlign=middle;resizable=0;points=[];autosize=1;strokeColor=none;fillColor=none;" parent="1" vertex="1">
          <mxGeometry x="1135" y="812" width="60" height="40" as="geometry" />
        </mxCell>
        <mxCell id="WhorsCFaroRiFAS23hu8-123" value="" style="endArrow=none;html=1;rounded=0;" parent="1" edge="1">
          <mxGeometry width="50" height="50" relative="1" as="geometry">
            <mxPoint x="1242" y="760" as="sourcePoint" />
            <mxPoint x="1261" y="760" as="targetPoint" />
          </mxGeometry>
        </mxCell>
        <mxCell id="WhorsCFaroRiFAS23hu8-124" value="" style="endArrow=none;html=1;rounded=0;" parent="1" edge="1">
          <mxGeometry width="50" height="50" relative="1" as="geometry">
            <mxPoint x="1208" y="804" as="sourcePoint" />
            <mxPoint x="1207" y="784" as="targetPoint" />
          </mxGeometry>
        </mxCell>
        <mxCell id="WhorsCFaroRiFAS23hu8-125" value="Pagar" style="text;html=1;align=center;verticalAlign=middle;resizable=0;points=[];autosize=1;strokeColor=none;fillColor=none;" parent="1" vertex="1">
          <mxGeometry x="1177.5" y="812" width="60" height="30" as="geometry" />
        </mxCell>
        <mxCell id="WhorsCFaroRiFAS23hu8-126" value="Avaliar" style="text;html=1;align=center;verticalAlign=middle;whiteSpace=wrap;rounded=0;" parent="1" vertex="1">
          <mxGeometry x="1277" y="745" width="60" height="30" as="geometry" />
        </mxCell>
        <mxCell id="WhorsCFaroRiFAS23hu8-127" value="(1,*)" style="text;html=1;align=center;verticalAlign=middle;resizable=0;points=[];autosize=1;strokeColor=none;fillColor=none;" parent="1" vertex="1">
          <mxGeometry x="916" y="595" width="50" height="30" as="geometry" />
        </mxCell>
        <mxCell id="WhorsCFaroRiFAS23hu8-128" value="(*,*)" style="text;html=1;align=center;verticalAlign=middle;resizable=0;points=[];autosize=1;strokeColor=none;fillColor=none;" parent="1" vertex="1">
          <mxGeometry x="1146" y="691" width="40" height="30" as="geometry" />
        </mxCell>
        <mxCell id="WhorsCFaroRiFAS23hu8-129" value="" style="shape=waypoint;sketch=0;fillStyle=solid;size=6;pointerEvents=1;points=[];fillColor=none;resizable=0;rotatable=0;perimeter=centerPerimeter;snapToPoint=1;" parent="1" vertex="1">
          <mxGeometry x="737" y="403" width="20" height="20" as="geometry" />
        </mxCell>
        <mxCell id="WhorsCFaroRiFAS23hu8-130" value="" style="endArrow=none;html=1;rounded=0;" parent="1" edge="1">
          <mxGeometry width="50" height="50" relative="1" as="geometry">
            <mxPoint x="750" y="413" as="sourcePoint" />
            <mxPoint x="767" y="412.5" as="targetPoint" />
          </mxGeometry>
        </mxCell>
        <mxCell id="WhorsCFaroRiFAS23hu8-131" value="ID" style="text;html=1;align=center;verticalAlign=middle;resizable=0;points=[];autosize=1;strokeColor=none;fillColor=none;" parent="1" vertex="1">
          <mxGeometry x="714" y="398" width="40" height="30" as="geometry" />
        </mxCell>
        <mxCell id="WhorsCFaroRiFAS23hu8-132" value="" style="ellipse;whiteSpace=wrap;html=1;" parent="1" vertex="1">
          <mxGeometry x="740" y="438" width="10" height="10" as="geometry" />
        </mxCell>
        <mxCell id="WhorsCFaroRiFAS23hu8-133" value="" style="endArrow=none;html=1;rounded=0;" parent="1" edge="1">
          <mxGeometry width="50" height="50" relative="1" as="geometry">
            <mxPoint x="748" y="443" as="sourcePoint" />
            <mxPoint x="768" y="443" as="targetPoint" />
          </mxGeometry>
        </mxCell>
        <mxCell id="WhorsCFaroRiFAS23hu8-134" value="Fazer_Pedido" style="text;html=1;align=center;verticalAlign=middle;resizable=0;points=[];autosize=1;strokeColor=none;fillColor=none;" parent="1" vertex="1">
          <mxGeometry x="622" y="429" width="100" height="30" as="geometry" />
        </mxCell>
        <mxCell id="WhorsCFaroRiFAS23hu8-135" value="(*,*)" style="text;html=1;align=center;verticalAlign=middle;resizable=0;points=[];autosize=1;strokeColor=none;fillColor=none;" parent="1" vertex="1">
          <mxGeometry x="794" y="373" width="40" height="30" as="geometry" />
        </mxCell>
        <mxCell id="WhorsCFaroRiFAS23hu8-136" value="(1,*)" style="text;html=1;align=center;verticalAlign=middle;resizable=0;points=[];autosize=1;strokeColor=none;fillColor=none;" parent="1" vertex="1">
          <mxGeometry x="787" y="702" width="50" height="30" as="geometry" />
        </mxCell>
        <mxCell id="WhorsCFaroRiFAS23hu8-137" value="" style="ellipse;whiteSpace=wrap;html=1;aspect=fixed;" parent="1" vertex="1">
          <mxGeometry x="916" y="755" width="10" height="10" as="geometry" />
        </mxCell>
        <mxCell id="WhorsCFaroRiFAS23hu8-138" value="" style="ellipse;whiteSpace=wrap;html=1;aspect=fixed;" parent="1" vertex="1">
          <mxGeometry x="772" y="812" width="10" height="10" as="geometry" />
        </mxCell>
        <mxCell id="WhorsCFaroRiFAS23hu8-139" value="" style="ellipse;whiteSpace=wrap;html=1;aspect=fixed;" parent="1" vertex="1">
          <mxGeometry x="828" y="815" width="10" height="10" as="geometry" />
        </mxCell>
        <mxCell id="WhorsCFaroRiFAS23hu8-140" value="" style="ellipse;whiteSpace=wrap;html=1;aspect=fixed;" parent="1" vertex="1">
          <mxGeometry x="738" y="770" width="10" height="10" as="geometry" />
        </mxCell>
        <mxCell id="WhorsCFaroRiFAS23hu8-141" value="" style="shape=waypoint;sketch=0;fillStyle=solid;size=6;pointerEvents=1;points=[];fillColor=none;resizable=0;rotatable=0;perimeter=centerPerimeter;snapToPoint=1;" parent="1" vertex="1">
          <mxGeometry x="733" y="734" width="20" height="20" as="geometry" />
        </mxCell>
        <mxCell id="WhorsCFaroRiFAS23hu8-142" value="" style="endArrow=none;html=1;rounded=0;" parent="1" edge="1">
          <mxGeometry width="50" height="50" relative="1" as="geometry">
            <mxPoint x="746" y="743.5" as="sourcePoint" />
            <mxPoint x="766" y="743.5" as="targetPoint" />
          </mxGeometry>
        </mxCell>
        <mxCell id="WhorsCFaroRiFAS23hu8-143" value="ID" style="text;html=1;align=center;verticalAlign=middle;resizable=0;points=[];autosize=1;strokeColor=none;fillColor=none;" parent="1" vertex="1">
          <mxGeometry x="710" y="729" width="40" height="30" as="geometry" />
        </mxCell>
        <mxCell id="WhorsCFaroRiFAS23hu8-144" value="" style="endArrow=none;html=1;rounded=0;" parent="1" edge="1">
          <mxGeometry width="50" height="50" relative="1" as="geometry">
            <mxPoint x="748" y="775" as="sourcePoint" />
            <mxPoint x="766" y="775" as="targetPoint" />
          </mxGeometry>
        </mxCell>
        <mxCell id="WhorsCFaroRiFAS23hu8-145" value="Ver_Pedidos" style="text;html=1;align=center;verticalAlign=middle;resizable=0;points=[];autosize=1;strokeColor=none;fillColor=none;" parent="1" vertex="1">
          <mxGeometry x="657" y="760" width="90" height="30" as="geometry" />
        </mxCell>
        <mxCell id="WhorsCFaroRiFAS23hu8-146" value="" style="endArrow=none;html=1;rounded=0;" parent="1" edge="1">
          <mxGeometry width="50" height="50" relative="1" as="geometry">
            <mxPoint x="777" y="809" as="sourcePoint" />
            <mxPoint x="776" y="790" as="targetPoint" />
          </mxGeometry>
        </mxCell>
        <mxCell id="WhorsCFaroRiFAS23hu8-147" value="Formas_de&lt;div&gt;Pagamentos&amp;nbsp;&lt;/div&gt;" style="text;html=1;align=center;verticalAlign=middle;resizable=0;points=[];autosize=1;strokeColor=none;fillColor=none;" parent="1" vertex="1">
          <mxGeometry x="720" y="815" width="90" height="40" as="geometry" />
        </mxCell>
        <mxCell id="WhorsCFaroRiFAS23hu8-148" value="" style="endArrow=none;html=1;rounded=0;" parent="1" edge="1">
          <mxGeometry width="50" height="50" relative="1" as="geometry">
            <mxPoint x="887" y="760" as="sourcePoint" />
            <mxPoint x="917" y="760" as="targetPoint" />
          </mxGeometry>
        </mxCell>
        <mxCell id="WhorsCFaroRiFAS23hu8-149" value="" style="endArrow=none;html=1;rounded=0;" parent="1" edge="1">
          <mxGeometry width="50" height="50" relative="1" as="geometry">
            <mxPoint x="833" y="813" as="sourcePoint" />
            <mxPoint x="833" y="793" as="targetPoint" />
          </mxGeometry>
        </mxCell>
        <mxCell id="WhorsCFaroRiFAS23hu8-150" value="Comanda_da&lt;div&gt;Mesa&lt;/div&gt;" style="text;html=1;align=center;verticalAlign=middle;resizable=0;points=[];autosize=1;strokeColor=none;fillColor=none;" parent="1" vertex="1">
          <mxGeometry x="794" y="822" width="100" height="40" as="geometry" />
        </mxCell>
        <mxCell id="WhorsCFaroRiFAS23hu8-151" value="Lançar_o&amp;nbsp;&lt;div&gt;Pedido_ao&lt;/div&gt;&lt;div&gt;Sistema&lt;/div&gt;" style="text;strokeColor=none;align=center;fillColor=none;html=1;verticalAlign=middle;whiteSpace=wrap;rounded=0;" parent="1" vertex="1">
          <mxGeometry x="930" y="745" width="60" height="30" as="geometry" />
        </mxCell>
        <mxCell id="WhorsCFaroRiFAS23hu8-152" value="" style="endArrow=none;html=1;rounded=0;" parent="1" edge="1">
          <mxGeometry width="50" height="50" relative="1" as="geometry">
            <mxPoint x="1026" y="660" as="sourcePoint" />
            <mxPoint x="1026" y="635" as="targetPoint" />
          </mxGeometry>
        </mxCell>
        <mxCell id="WhorsCFaroRiFAS23hu8-153" value="" style="endArrow=none;html=1;rounded=0;" parent="1" edge="1">
          <mxGeometry width="50" height="50" relative="1" as="geometry">
            <mxPoint x="976" y="660" as="sourcePoint" />
            <mxPoint x="976" y="635" as="targetPoint" />
          </mxGeometry>
        </mxCell>
        <mxCell id="WhorsCFaroRiFAS23hu8-154" value="" style="endArrow=none;html=1;rounded=0;" parent="1" edge="1">
          <mxGeometry width="50" height="50" relative="1" as="geometry">
            <mxPoint x="990" y="550" as="sourcePoint" />
            <mxPoint x="991" y="575" as="targetPoint" />
          </mxGeometry>
        </mxCell>
        <mxCell id="WhorsCFaroRiFAS23hu8-155" value="" style="ellipse;whiteSpace=wrap;html=1;aspect=fixed;" parent="1" vertex="1">
          <mxGeometry x="985" y="540" width="10" height="10" as="geometry" />
        </mxCell>
        <mxCell id="WhorsCFaroRiFAS23hu8-156" value="" style="ellipse;whiteSpace=wrap;html=1;aspect=fixed;" parent="1" vertex="1">
          <mxGeometry x="1021" y="660.5" width="11" height="11" as="geometry" />
        </mxCell>
        <mxCell id="WhorsCFaroRiFAS23hu8-157" value="" style="shape=waypoint;sketch=0;fillStyle=solid;size=6;pointerEvents=1;points=[];fillColor=none;resizable=0;rotatable=0;perimeter=centerPerimeter;snapToPoint=1;" parent="1" vertex="1">
          <mxGeometry x="966" y="656" width="20" height="20" as="geometry" />
        </mxCell>
        <mxCell id="WhorsCFaroRiFAS23hu8-158" value="ID" style="text;html=1;align=center;verticalAlign=middle;resizable=0;points=[];autosize=1;strokeColor=none;fillColor=none;" parent="1" vertex="1">
          <mxGeometry x="956" y="661" width="40" height="30" as="geometry" />
        </mxCell>
        <mxCell id="WhorsCFaroRiFAS23hu8-159" value="Comanda_da&lt;div&gt;Mesa&lt;/div&gt;" style="text;html=1;align=center;verticalAlign=middle;resizable=0;points=[];autosize=1;strokeColor=none;fillColor=none;" parent="1" vertex="1">
          <mxGeometry x="983" y="666.5" width="100" height="40" as="geometry" />
        </mxCell>
        <mxCell id="WhorsCFaroRiFAS23hu8-160" value="Anotar_Pedido" style="text;html=1;align=center;verticalAlign=middle;resizable=0;points=[];autosize=1;strokeColor=none;fillColor=none;" parent="1" vertex="1">
          <mxGeometry x="941" y="514" width="100" height="30" as="geometry" />
        </mxCell>
        <mxCell id="WhorsCFaroRiFAS23hu8-161" value="(*,*)" style="text;html=1;align=center;verticalAlign=middle;resizable=0;points=[];autosize=1;strokeColor=none;fillColor=none;" parent="1" vertex="1">
          <mxGeometry x="697" y="590" width="40" height="30" as="geometry" />
        </mxCell>
        <mxCell id="WhorsCFaroRiFAS23hu8-162" value="" style="shape=waypoint;sketch=0;size=6;pointerEvents=1;points=[];fillColor=none;resizable=0;rotatable=0;perimeter=centerPerimeter;snapToPoint=1;" parent="1" vertex="1">
          <mxGeometry x="550" y="576" width="20" height="20" as="geometry" />
        </mxCell>
        <mxCell id="WhorsCFaroRiFAS23hu8-163" value="" style="endArrow=none;html=1;rounded=0;" parent="1" edge="1">
          <mxGeometry width="50" height="50" relative="1" as="geometry">
            <mxPoint x="560" y="585.5" as="sourcePoint" />
            <mxPoint x="580" y="585.5" as="targetPoint" />
          </mxGeometry>
        </mxCell>
        <mxCell id="WhorsCFaroRiFAS23hu8-164" value="" style="endArrow=none;html=1;rounded=0;" parent="1" edge="1">
          <mxGeometry width="50" height="50" relative="1" as="geometry">
            <mxPoint x="624" y="654" as="sourcePoint" />
            <mxPoint x="624" y="634" as="targetPoint" />
          </mxGeometry>
        </mxCell>
        <mxCell id="WhorsCFaroRiFAS23hu8-165" value="" style="endArrow=none;html=1;rounded=0;" parent="1" edge="1">
          <mxGeometry width="50" height="50" relative="1" as="geometry">
            <mxPoint x="555.5" y="620" as="sourcePoint" />
            <mxPoint x="580.5" y="620" as="targetPoint" />
          </mxGeometry>
        </mxCell>
        <mxCell id="WhorsCFaroRiFAS23hu8-166" value="ID" style="text;html=1;align=center;verticalAlign=middle;resizable=0;points=[];autosize=1;strokeColor=none;fillColor=none;" parent="1" vertex="1">
          <mxGeometry x="530" y="571" width="40" height="30" as="geometry" />
        </mxCell>
        <mxCell id="WhorsCFaroRiFAS23hu8-167" value="Biometria" style="text;html=1;align=center;verticalAlign=middle;resizable=0;points=[];autosize=1;strokeColor=none;fillColor=none;" parent="1" vertex="1">
          <mxGeometry x="492" y="605" width="70" height="30" as="geometry" />
        </mxCell>
        <mxCell id="WhorsCFaroRiFAS23hu8-168" value="Bater_o_Pontonto&amp;nbsp;&lt;div&gt;Data_e_Hora&lt;/div&gt;" style="text;html=1;align=center;verticalAlign=middle;resizable=0;points=[];autosize=1;strokeColor=none;fillColor=none;" parent="1" vertex="1">
          <mxGeometry x="571" y="660.5" width="120" height="40" as="geometry" />
        </mxCell>
        <mxCell id="WhorsCFaroRiFAS23hu8-169" value="" style="ellipse;whiteSpace=wrap;html=1;aspect=fixed;" parent="1" vertex="1">
          <mxGeometry x="620" y="654" width="9" height="9" as="geometry" />
        </mxCell>
        <mxCell id="WhorsCFaroRiFAS23hu8-170" value="" style="ellipse;whiteSpace=wrap;html=1;aspect=fixed;" parent="1" vertex="1">
          <mxGeometry x="555.5" y="615" width="9" height="9" as="geometry" />
        </mxCell>
      </root>
    </mxGraphModel>
  </diagram>
</mxfile>
